HIERARCHY
ROOT Hips
{
	OFFSET -3.958830 18.904000 13.208200
	CHANNELS 6 Xposition Yposition Zposition Zrotation Yrotation Xrotation 
	JOINT LHipJoint
	{
		OFFSET 0.000000 0.000000 0.000000
		CHANNELS 3 Zrotation Yrotation Xrotation
		JOINT LeftUpLeg
		{
			OFFSET 1.800000 -1.400000 0.085000
			CHANNELS 3 Zrotation Yrotation Xrotation
			JOINT LeftLeg
			{
				OFFSET 2.215000 -6.000000 0.000000
				CHANNELS 3 Zrotation Yrotation Xrotation
				JOINT LeftFoot
				{
					OFFSET 2.500000 -6.900000 0.000000
					CHANNELS 3 Zrotation Yrotation Xrotation
					JOINT LeftToeBase
					{
						OFFSET 0.200000 -0.500000 1.950000
						CHANNELS 3 Zrotation Yrotation Xrotation
						End Site
						{
							OFFSET 0.000000 0.000000 0.000000
						}
					}
				}
			}
		}
	}
	JOINT RHipJoint
	{
		OFFSET 0.000000 0.000000 0.000000
		CHANNELS 3 Zrotation Yrotation Xrotation
		JOINT RightUpLeg
		{
			OFFSET -1.800000 -1.400000 0.085000
			CHANNELS 3 Zrotation Yrotation Xrotation
			JOINT RightLeg
			{
				OFFSET -2.215000 -6.000000 0.000000
				CHANNELS 3 Zrotation Yrotation Xrotation
				JOINT RightFoot
				{
					OFFSET -2.500000 -6.900000 0.000000
					CHANNELS 3 Zrotation Yrotation Xrotation
					JOINT RightToeBase
					{
						OFFSET -0.200000 -0.500000 1.950000
						CHANNELS 3 Zrotation Yrotation Xrotation
						End Site
						{
							OFFSET 0.000000 0.000000 0.000000
						}
					}
				}
			}
		}
	}
	JOINT LowerBack
	{
		OFFSET 0.000000 0.000000 0.000000
		CHANNELS 3 Zrotation Yrotation Xrotation
		JOINT Spine
		{
			OFFSET -0.087000 1.940000 -0.288900
			CHANNELS 3 Zrotation Yrotation Xrotation
			JOINT Spine1
			{
				OFFSET 0.000000 1.950000 0.060000
				CHANNELS 3 Zrotation Yrotation Xrotation
				JOINT Neck
				{
					OFFSET 0.000000 0.000000 0.000000
					CHANNELS 3 Zrotation Yrotation Xrotation
					JOINT Neck1
					{
						OFFSET 0.000000 1.600000 0.340000
						CHANNELS 3 Zrotation Yrotation Xrotation
						JOINT Head
						{
							OFFSET 0.000000 1.667000 -0.240000
							CHANNELS 3 Zrotation Yrotation Xrotation
							End Site
							{
								OFFSET 0.000000 0.000000 0.000000
							}
						}
					}
				}
				JOINT LeftShoulder
				{
					OFFSET 0.000000 0.000000 0.000000
					CHANNELS 3 Zrotation Yrotation Xrotation
					JOINT LeftArm
					{
						OFFSET 2.700000 1.550000 -0.730000
						CHANNELS 3 Zrotation Yrotation Xrotation
						JOINT LeftForeArm
						{
							OFFSET 5.450000 0.000000 0.000000
							CHANNELS 3 Zrotation Yrotation Xrotation
							JOINT LeftHand
							{
								OFFSET 3.450000 0.000000 0.000000
								CHANNELS 3 Zrotation Yrotation Xrotation
								JOINT LeftHandIndex1
								{
									OFFSET 0.750000 0.000000 0.000000
									CHANNELS 3 Zrotation Yrotation Xrotation
									End Site
									{
										OFFSET 0.000000 0.000000 0.000000
									}
								}
							}
						}
					}
				}
				JOINT RightShoulder
				{
					OFFSET 0.000000 0.000000 0.000000
					CHANNELS 3 Zrotation Yrotation Xrotation
					JOINT RightArm
					{
						OFFSET -2.700000 1.550000 -0.730000
						CHANNELS 3 Zrotation Yrotation Xrotation
						JOINT RightForeArm
						{
							OFFSET -5.450000 0.000000 0.000000
							CHANNELS 3 Zrotation Yrotation Xrotation
							JOINT RightHand
							{
								OFFSET -3.450000 0.000000 0.000000
								CHANNELS 3 Zrotation Yrotation Xrotation
								JOINT RightHandIndex1
								{
									OFFSET -0.750000 0.000000 0.000000
									CHANNELS 3 Zrotation Yrotation Xrotation
									End Site
									{
										OFFSET 0.000000 0.000000 0.000000
									}
								}
							}
						}
					}
				}
			}
		}
	}
}
MOTION
Frames: 4
Frame Time: 0.016667
-0.163740 17.028490 -1.006390 -4.173665 -4.864353 7.117500 -15.112861 12.164029 3.610926 9.654082 -3.676354 -23.998584 -19.748294 13.108362 27.560222 -0.432894 8.993898 2.065660 -0.086160 -0.793690 -0.451720 18.440585 -10.196444 2.987584 -6.359174 5.806260 -23.157922 17.421650 -12.095647 29.949101 -0.800548 -6.619803 2.104797 -0.198780 1.910200 1.210560 -3.899868 -0.988263 -7.602370 11.494073 0.530932 9.093694 -5.040336 1.544584 4.540826 3.087742 -2.760613 -8.703645 -4.475760 8.246530 22.532823 -4.324640 3.918770 -2.869960 -15.484942 -8.374641 2.498088 -49.221442 -9.242102 0.126831 -25.259806 -21.785951 1.065397 -4.864329 2.818526 0.830750 1.120330 -0.313080 0.746510 9.463268 11.270947 5.535412 52.380858 11.073349 -3.728345 30.428954 28.424534 4.248687 1.456918 -1.547244 -0.677430 0.686210 0.599780 0.128320 
-0.162270 17.017200 -1.007740 -4.210205 -4.829329 7.166745 -15.115296 12.124738 3.637256 9.906119 -3.705937 -24.233367 -20.040190 13.326762 27.806870 -0.414080 9.092963 2.028424 -0.091190 -0.792840 -0.463920 18.445488 -10.159005 2.999965 -6.566063 5.891095 -23.370249 17.791234 -12.304822 30.182213 -0.813754 -6.700567 2.080028 -0.196460 1.916300 1.205680 -3.906781 -0.989418 -7.626420 11.581865 0.490831 9.143042 -5.106844 1.525087 4.436689 3.066464 -2.786647 -8.669152 -4.515536 8.303712 22.450628 -4.181840 3.867270 -2.878360 -15.481856 -8.232446 2.451343 -48.908874 -9.124292 0.114012 -25.463574 -21.843340 1.125590 -4.867794 2.816887 0.826850 1.122980 -0.318280 0.746610 9.490014 11.124816 5.494054 52.038976 10.963463 -3.715250 30.664970 28.472591 4.329517 1.453309 -1.544574 -0.679760 0.692070 0.605660 0.131760 
-0.159820 16.997780 -1.010490 -4.280944 -4.756440 7.238805 -15.123406 12.058241 3.687920 10.331723 -3.768224 -24.669305 -20.529578 13.707718 28.283736 -0.373096 9.266953 1.958592 -0.093190 -0.785340 -0.481500 18.449800 -10.093816 3.019765 -6.919345 6.023344 -23.714204 18.404903 -12.657818 30.544277 -0.842093 -6.842724 2.027934 -0.192980 1.917570 1.215510 -3.906790 -0.995872 -7.671817 11.696837 0.437589 9.261411 -5.176958 1.500506 4.293831 3.110081 -2.784527 -8.650257 -4.498899 8.330458 22.296034 -4.215940 3.886170 -2.813540 -15.509596 -8.053836 2.383083 -48.292294 -8.923895 0.070733 -25.769123 -21.941148 1.220872 -4.873305 2.835799 0.816620 1.129630 -0.318470 0.749000 9.418569 10.935444 5.480410 51.525447 10.709300 -3.784518 31.041595 28.739552 4.476381 1.446691 -1.558365 -0.670050 0.680360 0.610410 0.139080 
-0.156540 16.972360 -1.015110 -4.327811 -4.587475 7.284212 -15.133157 11.979551 3.750161 10.824948 -3.866834 -25.208486 -21.059929 14.151309 28.901912 -0.315325 9.467972 1.877960 -0.076280 -0.760200 -0.488250 18.455183 -10.009798 3.046402 -7.429268 6.164464 -24.140467 19.234536 -13.136861 30.994528 -0.889741 -7.028140 1.959133 -0.184730 1.909630 1.235120 -3.907526 -1.018504 -7.731055 11.830072 0.310945 9.466358 -5.274770 1.417992 4.103947 3.111578 -2.824838 -8.615574 -4.561275 8.380000 22.140275 -4.102190 3.830430 -2.877960 -15.460375 -7.802212 2.298225 -47.544740 -8.731520 0.048905 -26.097035 -22.020322 1.326499 -4.868197 2.869618 0.806400 1.129700 -0.308050 0.759640 9.348204 10.682877 5.436350 50.825197 10.439498 -3.840477 31.552846 29.096848 4.688807 1.442768 -1.583062 -0.646260 0.659460 0.602240 0.150180 
